<svg width="24" height="24" viewBox="0 0 24 24" fill="none" xmlns="http://www.w3.org/2000/svg">
<path d="M22.56 12.25C22.56 11.47 22.49 10.72 22.36 10H12V14.255H17.92C17.665 15.63 16.89 16.795 15.725 17.575V20.335H19.28C21.36 18.42 22.56 15.6 22.56 12.25Z" fill="#4285F4"/>
<path d="M12 23C15.24 23 17.955 21.92 19.28 20.335L15.725 17.575C14.74 18.235 13.48 18.625 12 18.625C8.875 18.625 6.235 16.68 5.325 13.89H1.64V16.73C2.96 19.355 7.24 23 12 23Z" fill="#34A853"/>
<path d="M5.325 13.89C5.115 13.23 5 12.53 5 11.8C5 11.07 5.115 10.37 5.325 9.71V6.87H1.64C0.895 8.355 0.5 10.025 0.5 11.8C0.5 13.575 0.895 15.245 1.64 16.73L5.325 13.89Z" fill="#FBBC05"/>
<path d="M12 4.975C13.605 4.975 15.02 5.53 16.125 6.595L19.18 3.54C17.95 2.39 16.235 1.75 12 1.75C7.24 1.75 2.96 5.395 1.64 8.02L5.325 10.86C6.235 8.07 8.875 6.125 12 6.125V4.975Z" fill="#EA4335"/>
</svg>
